<svg data-v-fde0c5aa="" xmlns="http://www.w3.org/2000/svg" viewBox="0 0 300 300" class="iconAboveSlogan"><!----><defs data-v-fde0c5aa=""><!----></defs><rect data-v-fde0c5aa="" fill="transparent" x="0" y="0" width="300px" height="300px" class="logo-background-square"></rect><defs data-v-fde0c5aa=""><!----></defs><g data-v-fde0c5aa="" id="ad6c3c33-d8ae-4f52-a58b-8b3763000068" fill="white" transform="matrix(5.28777729677058,0,0,5.28777729677058,14.289200292560992,143.8402432834768)"><path d="M1.08 13.51L1.08 3.71L4.66 3.71L4.66 3.71Q6.23 3.71 7.13 4.46L7.13 4.46L7.13 4.46Q8.04 5.21 8.04 6.68L8.04 6.68L8.04 6.68Q8.04 7.70 7.60 8.35L7.60 8.35L7.60 8.35Q7.17 9.00 6.37 9.39L6.37 9.39L8.58 13.51L6.58 13.51L4.69 9.87L4.62 9.87L2.87 9.87L2.87 13.51L1.08 13.51ZM2.87 8.37L4.19 8.37L4.19 8.37Q6.16 8.37 6.16 6.78L6.16 6.78L6.16 6.78Q6.16 6.01 5.71 5.61L5.71 5.61L5.71 5.61Q5.26 5.21 4.26 5.21L4.26 5.21L2.87 5.21L2.87 8.37ZM12.95 13.65L12.95 13.65Q11.73 13.65 10.87 13.15L10.87 13.15L10.87 13.15Q10.01 12.66 9.58 11.82L9.58 11.82L9.58 11.82Q9.16 10.99 9.16 9.97L9.16 9.97L9.16 9.97Q9.16 8.99 9.56 8.18L9.56 8.18L9.56 8.18Q9.97 7.36 10.74 6.88L10.74 6.88L10.74 6.88Q11.51 6.40 12.57 6.40L12.57 6.40L12.57 6.40Q13.55 6.40 14.23 6.80L14.23 6.80L14.23 6.80Q14.91 7.21 15.25 7.90L15.25 7.90L15.25 7.90Q15.60 8.58 15.60 9.44L15.60 9.44L15.60 9.44Q15.60 9.86 15.48 10.39L15.48 10.39L10.96 10.39L10.96 10.39Q11.10 11.31 11.69 11.77L11.69 11.77L11.69 11.77Q12.28 12.22 13.10 12.22L13.10 12.22L13.10 12.22Q14.24 12.22 15.20 11.65L15.20 11.65L15.29 13.12L15.29 13.12Q14.84 13.36 14.24 13.50L14.24 13.50L14.24 13.50Q13.65 13.65 12.95 13.65L12.95 13.65ZM11.00 9.21L13.83 9.21L13.83 9.21Q13.83 8.67 13.52 8.25L13.52 8.25L13.52 8.25Q13.22 7.83 12.57 7.83L12.57 7.83L12.57 7.83Q11.93 7.83 11.54 8.20L11.54 8.20L11.54 8.20Q11.14 8.58 11.00 9.21L11.00 9.21ZM20.03 13.65L20.03 13.65Q18.87 13.65 18.04 13.17L18.04 13.17L18.04 13.17Q17.21 12.68 16.79 11.86L16.79 11.86L16.79 11.86Q16.37 11.03 16.37 10.02L16.37 10.02L16.37 10.02Q16.37 9.00 16.79 8.17L16.79 8.17L16.79 8.17Q17.21 7.34 18.05 6.85L18.05 6.85L18.05 6.85Q18.89 6.37 20.09 6.37L20.09 6.37L20.09 6.37Q21.17 6.37 21.97 6.82L21.97 6.82L21.83 8.22L21.83 8.22Q21.07 7.83 20.26 7.83L20.26 7.83L20.26 7.83Q19.26 7.83 18.70 8.43L18.70 8.43L18.70 8.43Q18.14 9.03 18.14 10.02L18.14 10.02L18.14 10.02Q18.14 10.98 18.72 11.60L18.72 11.60L18.72 11.60Q19.29 12.22 20.24 12.22L20.24 12.22L20.24 12.22Q21.04 12.22 21.84 11.76L21.84 11.76L21.99 13.23L21.99 13.23Q21.62 13.43 21.11 13.54L21.11 13.54L21.11 13.54Q20.59 13.65 20.03 13.65L20.03 13.65ZM26.53 13.65L26.53 13.65Q25.31 13.65 24.45 13.15L24.45 13.15L24.45 13.15Q23.59 12.66 23.16 11.82L23.16 11.82L23.16 11.82Q22.74 10.99 22.74 9.97L22.74 9.97L22.74 9.97Q22.74 8.99 23.14 8.18L23.14 8.18L23.14 8.18Q23.55 7.36 24.32 6.88L24.32 6.88L24.32 6.88Q25.09 6.40 26.15 6.40L26.15 6.40L26.15 6.40Q27.13 6.40 27.81 6.80L27.81 6.80L27.81 6.80Q28.49 7.21 28.83 7.90L28.83 7.90L28.83 7.90Q29.18 8.58 29.18 9.44L29.18 9.44L29.18 9.44Q29.18 9.86 29.06 10.39L29.06 10.39L24.54 10.39L24.54 10.39Q24.68 11.31 25.27 11.77L25.27 11.77L25.27 11.77Q25.86 12.22 26.68 12.22L26.68 12.22L26.68 12.22Q27.82 12.22 28.78 11.65L28.78 11.65L28.87 13.12L28.87 13.12Q28.42 13.36 27.83 13.50L27.83 13.50L27.83 13.50Q27.23 13.65 26.53 13.65L26.53 13.65ZM24.58 9.21L27.41 9.21L27.41 9.21Q27.41 8.67 27.10 8.25L27.10 8.25L27.10 8.25Q26.80 7.83 26.15 7.83L26.15 7.83L26.15 7.83Q25.51 7.83 25.12 8.20L25.12 8.20L25.12 8.20Q24.72 8.58 24.58 9.21L24.58 9.21ZM30.37 5.45L30.37 3.71L32.10 3.71L32.10 5.45L30.37 5.45ZM30.37 13.51L30.37 6.51L32.10 6.51L32.10 13.51L30.37 13.51ZM36.01 13.65L36.01 13.65Q35.08 13.65 34.61 13.11L34.61 13.11L34.61 13.11Q34.13 12.57 34.13 11.82L34.13 11.82L34.13 7.94L33.14 7.94L33.29 6.51L34.13 6.51L34.13 4.97L35.87 4.79L35.87 6.51L37.41 6.51L37.41 7.94L35.87 7.94L35.87 11.10L35.87 11.10Q35.87 11.66 35.93 11.88L35.93 11.88L35.93 11.88Q35.99 12.10 36.20 12.16L36.20 12.16L36.20 12.16Q36.40 12.22 36.93 12.22L36.93 12.22L37.41 12.22L37.25 13.65L36.01 13.65ZM40.05 13.65L40.05 13.65Q39.19 13.65 38.61 13.08L38.61 13.08L38.61 13.08Q38.02 12.52 38.02 11.55L38.02 11.55L38.02 11.55Q38.02 10.64 38.68 10.09L38.68 10.09L38.68 10.09Q39.34 9.53 40.24 9.30L40.24 9.30L40.24 9.30Q41.13 9.07 41.96 9.04L41.96 9.04L41.96 9.04Q41.93 8.43 41.64 8.16L41.64 8.16L41.64 8.16Q41.36 7.90 40.70 7.90L40.70 7.90L40.70 7.90Q40.24 7.90 39.80 8.02L39.80 8.02L39.80 8.02Q39.35 8.15 38.78 8.43L38.78 8.43L38.63 7.01L38.63 7.01Q39.90 6.40 41.17 6.40L41.17 6.40L41.17 6.40Q42.41 6.40 43.06 7.07L43.06 7.07L43.06 7.07Q43.71 7.74 43.71 9.21L43.71 9.21L43.71 11.10L43.71 11.10Q43.71 11.63 43.76 11.87L43.76 11.87L43.76 11.87Q43.81 12.10 43.93 12.16L43.93 12.16L43.93 12.16Q44.04 12.22 44.32 12.22L44.32 12.22L44.55 12.22L44.39 13.65L43.76 13.65L43.76 13.65Q43.19 13.65 42.80 13.43L42.80 13.43L42.80 13.43Q42.41 13.22 42.20 12.84L42.20 12.84L42.20 12.84Q41.86 13.22 41.28 13.43L41.28 13.43L41.28 13.43Q40.70 13.65 40.05 13.65L40.05 13.65ZM40.78 12.32L40.78 12.32Q41.05 12.32 41.38 12.19L41.38 12.19L41.38 12.19Q41.72 12.05 41.97 11.82L41.97 11.82L41.97 10.22L41.97 10.22Q41.13 10.26 40.49 10.58L40.49 10.58L40.49 10.58Q39.84 10.91 39.84 11.48L39.84 11.48L39.84 11.48Q39.84 11.91 40.07 12.12L40.07 12.12L40.07 12.12Q40.29 12.32 40.78 12.32L40.78 12.32ZM47.50 13.65L47.50 13.65Q46.83 13.65 46.28 13.52L46.28 13.52L46.28 13.52Q45.72 13.40 45.14 13.13L45.14 13.13L45.29 11.65L45.29 11.65Q45.88 12.00 46.39 12.17L46.39 12.17L46.39 12.17Q46.90 12.35 47.45 12.35L47.45 12.35L47.45 12.35Q48.51 12.35 48.51 11.65L48.51 11.65L48.51 11.65Q48.51 11.27 48.23 11.07L48.23 11.07L48.23 11.07Q47.95 10.86 47.22 10.58L47.22 10.58L47.22 10.58Q46.19 10.21 45.70 9.72L45.70 9.72L45.70 9.72Q45.21 9.24 45.21 8.41L45.21 8.41L45.21 8.41Q45.21 7.50 45.91 6.94L45.91 6.94L45.91 6.94Q46.61 6.37 47.80 6.37L47.80 6.37L47.80 6.37Q48.99 6.37 49.97 6.92L49.97 6.92L49.81 8.40L49.81 8.40Q49.28 8.04 48.81 7.84L48.81 7.84L48.81 7.84Q48.34 7.64 47.82 7.64L47.82 7.64L47.82 7.64Q47.38 7.64 47.13 7.83L47.13 7.83L47.13 7.83Q46.89 8.01 46.89 8.34L46.89 8.34L46.89 8.34Q46.89 8.61 47.03 8.78L47.03 8.78L47.03 8.78Q47.18 8.95 47.45 9.08L47.45 9.08L47.45 9.08Q47.71 9.21 48.33 9.45L48.33 9.45L48.33 9.45Q49.35 9.84 49.80 10.31L49.80 10.31L49.80 10.31Q50.25 10.78 50.25 11.56L50.25 11.56L50.25 11.56Q50.25 12.56 49.53 13.10L49.53 13.10L49.53 13.10Q48.82 13.65 47.50 13.65L47.50 13.65Z"></path></g><defs data-v-fde0c5aa=""><linearGradient data-v-fde0c5aa="" gradientTransform="rotate(25)" id="0227d6f9-6610-447a-a9b2-2f41762c2981" x1="0%" y1="0%" x2="100%" y2="0%"><stop data-v-fde0c5aa="" offset="0%" stop-color="red" stop-opacity="1"></stop><stop data-v-fde0c5aa="" offset="100%" stop-color="#5BD0A4" stop-opacity="1"></stop></linearGradient></defs><g data-v-fde0c5aa="" id="8a941648-5acf-4387-b584-4445e923e042" stroke="none" fill="url(#0227d6f9-6610-447a-a9b2-2f41762c2981)" transform="matrix(0.8358870760168394,0,0,0.8358870760168394,108.47271209443616,63.7056196324834)"><path d="M99.361 64.721c0-2.679-2.171-4.721-4.85-4.721H25.944c-1.33-3-2.692-6.635-3.936-9.915-3.67-9.679-4.608-19.049-8.746-23.332-5.968-6.176-6.929 7.023-4.354 8.806C10.186 36.443 15.566 48 20.926 60H4.85C2.171 60 0 62.042 0 64.721c0 2.062 1.29 3.756 3.106 4.456a8.769 8.769 0 0 0-.334 2.471c0 15.196 11.479 26.169 46.711 26.155 36.835-.014 46.711-10.983 46.711-26.18 0-.874-.081-1.606-.231-2.336 1.97-.617 3.398-2.393 3.398-4.566z"></path><path d="M27.568 29.437c.242 3.204 9.402 4.98 9.942 8.147.498 2.932-6.659 6.973-6.521 9.941.075 1.563 3.912 4.89 3.912 4.89s-1.831-3.724-1.711-5.052c.262-2.879 6.034-7.243 5.622-10.104-.626-4.351-6.037-4.053-5.704-8.312.225-2.856 5.704-6.029 5.704-9.941 0-3.91-11.245-6.845-11.245-6.845s8.744 4.446 8.965 7.334c.253 3.337-9.215 6.606-8.964 9.942zM72.15 30.414c.24 3.205 9.401 4.98 9.939 8.148.499 2.931-6.658 6.973-6.519 9.941.075 1.562 3.911 4.888 3.911 4.888s-1.831-3.723-1.709-5.052c.26-2.878 6.034-7.242 5.621-10.104-.627-4.351-6.037-4.051-5.703-8.312.223-2.856 5.703-6.029 5.703-9.94 0-3.91-11.244-6.844-11.244-6.844s8.744 4.445 8.963 7.332c.254 3.338-9.214 6.606-8.962 9.943zM48.426 24.113c.296 3.916 11.493 6.087 12.15 9.959.609 3.581-8.14 8.521-7.968 12.149.091 1.911 4.78 5.976 4.78 5.976s-2.238-4.552-2.091-6.175c.32-3.519 7.376-8.853 6.872-12.35-.767-5.316-7.379-4.951-6.972-10.157.273-3.492 6.972-7.37 6.972-12.15S48.426 3 48.426 3s10.688 5.435 10.956 8.962c.308 4.079-11.262 8.073-10.956 12.151z"></path></g><defs data-v-fde0c5aa=""><!----></defs><g data-v-fde0c5aa="" id="757bb792-05d5-40c8-9830-23487fd88ed9" fill="white" transform="matrix(0.7615997246218945,0,0,0.7615997246218945,51.81456022060337,221.69251506215318)"><path d="M4.34 14.78L4.34 14.78L4.34 14.78Q4.94 14.78 5.37 14.58L5.37 14.58L5.37 14.58Q5.80 14.38 6.07 14.04L6.07 14.04L6.07 14.04Q6.34 13.69 6.48 13.25L6.48 13.25L6.48 13.25Q6.61 12.81 6.61 12.32L6.61 12.32L6.61 12.15L7.78 12.15L7.78 12.32L7.78 12.32Q7.78 13.06 7.56 13.71L7.56 13.71L7.56 13.71Q7.34 14.36 6.90 14.85L6.90 14.85L6.90 14.85Q6.47 15.33 5.82 15.60L5.82 15.60L5.82 15.60Q5.18 15.88 4.34 15.88L4.34 15.88L4.34 15.88Q2.72 15.88 1.81 14.85L1.81 14.85L1.81 14.85Q0.90 13.83 0.90 11.87L0.90 11.87L0.90 9.69L0.90 9.69Q0.90 7.78 1.81 6.73L1.81 6.73L1.81 6.73Q2.72 5.68 4.34 5.68L4.34 5.68L4.34 5.68Q5.18 5.68 5.82 5.96L5.82 5.96L5.82 5.96Q6.47 6.23 6.90 6.71L6.90 6.71L6.90 6.71Q7.34 7.20 7.56 7.85L7.56 7.85L7.56 7.85Q7.78 8.50 7.78 9.24L7.78 9.24L7.78 9.41L6.61 9.41L6.61 9.24L6.61 9.24Q6.59 8.76 6.46 8.32L6.46 8.32L6.46 8.32Q6.33 7.87 6.05 7.53L6.05 7.53L6.05 7.53Q5.78 7.18 5.36 6.98L5.36 6.98L5.36 6.98Q4.94 6.78 4.34 6.78L4.34 6.78L4.34 6.78Q3.21 6.78 2.64 7.60L2.64 7.60L2.64 7.60Q2.07 8.43 2.07 9.77L2.07 9.77L2.07 11.79L2.07 11.79Q2.07 13.23 2.64 14.01L2.64 14.01L2.64 14.01Q3.21 14.78 4.34 14.78ZM16.41 11.87L16.41 9.69L16.41 9.69Q16.41 7.78 17.32 6.73L17.32 6.73L17.32 6.73Q18.23 5.68 19.85 5.68L19.85 5.68L19.85 5.68Q21.48 5.68 22.39 6.73L22.39 6.73L22.39 6.73Q23.30 7.78 23.30 9.69L23.30 9.69L23.30 11.87L23.30 11.87Q23.30 13.83 22.39 14.85L22.39 14.85L22.39 14.85Q21.48 15.88 19.85 15.88L19.85 15.88L19.85 15.88Q18.23 15.88 17.32 14.85L17.32 14.85L17.32 14.85Q16.41 13.83 16.41 11.87L16.41 11.87ZM19.85 14.78L19.85 14.78L19.85 14.78Q20.99 14.78 21.55 14.01L21.55 14.01L21.55 14.01Q22.12 13.23 22.12 11.79L22.12 11.79L22.12 9.77L22.12 9.77Q22.12 8.43 21.55 7.60L21.55 7.60L21.55 7.60Q20.99 6.78 19.85 6.78L19.85 6.78L19.85 6.78Q18.72 6.78 18.15 7.60L18.15 7.60L18.15 7.60Q17.58 8.43 17.58 9.77L17.58 9.77L17.58 11.79L17.58 11.79Q17.58 13.23 18.15 14.01L18.15 14.01L18.15 14.01Q18.72 14.78 19.85 14.78ZM31.78 15.68L31.78 5.88L34.02 5.88L35.34 15.18L35.50 15.18L36.82 5.88L39.06 5.88L39.06 15.68L37.97 15.68L37.97 6.38L37.80 6.38L36.48 15.68L34.36 15.68L33.04 6.38L32.87 6.38L32.87 15.68L31.78 15.68ZM47.88 6.97L47.88 5.88L54.10 5.88L54.10 6.97L51.58 6.97L51.58 14.59L54.10 14.59L54.10 15.68L47.88 15.68L47.88 14.59L50.40 14.59L50.40 6.97L47.88 6.97ZM63.29 6.97L63.29 5.88L66.51 5.88L66.51 5.88Q68.33 5.88 69.17 6.75L69.17 6.75L69.17 6.75Q70.01 7.62 70.01 9.52L70.01 9.52L70.01 12.04L70.01 12.04Q70.01 13.94 69.17 14.81L69.17 14.81L69.17 14.81Q68.33 15.68 66.51 15.68L66.51 15.68L63.29 15.68L63.29 14.57L64.13 14.57L64.13 6.97L63.29 6.97ZM65.31 14.59L66.35 14.59L66.35 14.59Q66.99 14.59 67.46 14.46L67.46 14.46L67.46 14.46Q67.93 14.34 68.24 14.04L68.24 14.04L68.24 14.04Q68.54 13.73 68.69 13.23L68.69 13.23L68.69 13.23Q68.84 12.73 68.84 11.96L68.84 11.96L68.84 9.60L68.84 9.60Q68.84 8.83 68.69 8.33L68.69 8.33L68.69 8.33Q68.54 7.83 68.24 7.53L68.24 7.53L68.24 7.53Q67.93 7.22 67.46 7.10L67.46 7.10L67.46 7.10Q66.99 6.97 66.35 6.97L66.35 6.97L65.31 6.97L65.31 14.59ZM84.94 15.68L84.22 13.24L80.02 13.24L79.31 15.68L78.05 15.68L81.02 5.88L83.23 5.88L86.20 15.68L84.94 15.68ZM82.21 6.38L82.04 6.38L80.35 12.15L83.90 12.15L82.21 6.38ZM100.00 9.21L100.00 8.71L100.00 8.71Q100.00 8.23 99.81 7.87L99.81 7.87L99.81 7.87Q99.62 7.50 99.30 7.27L99.30 7.27L99.30 7.27Q98.98 7.03 98.56 6.90L98.56 6.90L98.56 6.90Q98.14 6.78 97.68 6.78L97.68 6.78L97.68 6.78Q97.27 6.78 96.91 6.88L96.91 6.88L96.91 6.88Q96.54 6.99 96.26 7.18L96.26 7.18L96.26 7.18Q95.97 7.38 95.80 7.66L95.80 7.66L95.80 7.66Q95.63 7.95 95.63 8.33L95.63 8.33L95.63 8.41L95.63 8.41Q95.63 8.82 95.80 9.11L95.80 9.11L95.80 9.11Q95.97 9.39 96.30 9.60L96.30 9.60L96.30 9.60Q96.63 9.80 97.12 9.93L97.12 9.93L97.12 9.93Q97.61 10.07 98.27 10.16L98.27 10.16L98.27 10.16Q99.81 10.40 100.53 11.07L100.53 11.07L100.53 11.07Q101.26 11.73 101.26 12.85L101.26 12.85L101.26 13.02L101.26 13.02Q101.26 13.65 101.05 14.17L101.05 14.17L101.05 14.17Q100.83 14.70 100.40 15.08L100.40 15.08L100.40 15.08Q99.97 15.46 99.34 15.67L99.34 15.67L99.34 15.67Q98.71 15.88 97.89 15.88L97.89 15.88L97.89 15.88Q96.95 15.88 96.23 15.60L96.23 15.60L96.23 15.60Q95.51 15.33 95.03 14.85L95.03 14.85L95.03 14.85Q94.54 14.36 94.29 13.71L94.29 13.71L94.29 13.71Q94.04 13.06 94.04 12.29L94.04 12.29L94.04 11.87L95.21 11.87L95.21 12.21L95.21 12.21Q95.21 13.50 95.92 14.14L95.92 14.14L95.92 14.14Q96.63 14.78 97.89 14.78L97.89 14.78L97.89 14.78Q98.98 14.78 99.53 14.30L99.53 14.30L99.53 14.30Q100.09 13.82 100.09 13.02L100.09 13.02L100.09 12.94L100.09 12.94Q100.09 12.17 99.52 11.76L99.52 11.76L99.52 11.76Q98.95 11.35 97.68 11.17L97.68 11.17L97.68 11.17Q96.94 11.07 96.34 10.87L96.34 10.87L96.34 10.87Q95.75 10.67 95.33 10.34L95.33 10.34L95.33 10.34Q94.91 10.01 94.68 9.55L94.68 9.55L94.68 9.55Q94.46 9.09 94.46 8.46L94.46 8.46L94.46 8.29L94.46 8.29Q94.46 7.71 94.70 7.24L94.70 7.24L94.70 7.24Q94.93 6.76 95.36 6.41L95.36 6.41L95.36 6.41Q95.79 6.06 96.38 5.87L96.38 5.87L96.38 5.87Q96.98 5.68 97.69 5.68L97.69 5.68L97.69 5.68Q98.52 5.68 99.17 5.92L99.17 5.92L99.17 5.92Q99.82 6.16 100.27 6.56L100.27 6.56L100.27 6.56Q100.72 6.96 100.95 7.50L100.95 7.50L100.95 7.50Q101.18 8.04 101.18 8.62L101.18 8.62L101.18 9.21L100.00 9.21ZM125.86 15.68L125.86 5.88L131.80 5.88L131.80 6.97L127.04 6.97L127.04 10.22L131.71 10.22L131.71 11.31L127.04 11.31L127.04 14.59L131.88 14.59L131.88 15.68L125.86 15.68ZM156.48 15.68L156.48 14.59L157.32 14.59L157.32 6.97L156.48 6.97L156.48 5.88L160.44 5.88L160.44 5.88Q161.14 5.88 161.68 6.08L161.68 6.08L161.68 6.08Q162.22 6.27 162.59 6.61L162.59 6.61L162.59 6.61Q162.96 6.94 163.15 7.41L163.15 7.41L163.15 7.41Q163.34 7.88 163.34 8.43L163.34 8.43L163.34 8.60L163.34 8.60Q163.34 9.00 163.21 9.34L163.21 9.34L163.21 9.34Q163.09 9.67 162.86 9.94L162.86 9.94L162.86 9.94Q162.64 10.21 162.34 10.39L162.34 10.39L162.34 10.39Q162.04 10.58 161.69 10.68L161.69 10.68L161.69 10.85L161.69 10.85Q162.39 11.05 162.86 11.60L162.86 11.60L162.86 11.60Q163.34 12.15 163.34 12.95L163.34 12.95L163.34 13.12L163.34 13.12Q163.34 13.66 163.15 14.13L163.15 14.13L163.15 14.13Q162.96 14.60 162.59 14.95L162.59 14.95L162.59 14.95Q162.22 15.29 161.68 15.48L161.68 15.48L161.68 15.48Q161.14 15.68 160.44 15.68L160.44 15.68L156.48 15.68ZM158.49 11.31L158.49 14.59L160.36 14.59L160.36 14.59Q161.18 14.59 161.70 14.17L161.70 14.17L161.70 14.17Q162.22 13.76 162.22 13.03L162.22 13.03L162.22 12.95L162.22 12.95Q162.22 12.19 161.73 11.75L161.73 11.75L161.73 11.75Q161.24 11.31 160.40 11.31L160.40 11.31L158.49 11.31ZM158.49 6.97L158.49 10.22L160.40 10.22L160.40 10.22Q161.24 10.22 161.73 9.79L161.73 9.79L161.73 9.79Q162.22 9.35 162.22 8.60L162.22 8.60L162.22 8.51L162.22 8.51Q162.22 7.80 161.70 7.38L161.70 7.38L161.70 7.38Q161.18 6.97 160.36 6.97L160.36 6.97L158.49 6.97ZM172.56 15.68L172.56 5.88L178.50 5.88L178.50 6.97L173.74 6.97L173.74 10.22L178.42 10.22L178.42 11.31L173.74 11.31L173.74 14.59L178.58 14.59L178.58 15.68L172.56 15.68ZM187.61 15.68L187.61 14.59L188.45 14.59L188.45 6.97L187.61 6.97L187.61 5.88L191.58 5.88L191.58 5.88Q192.28 5.88 192.82 6.08L192.82 6.08L192.82 6.08Q193.35 6.27 193.73 6.61L193.73 6.61L193.73 6.61Q194.10 6.94 194.29 7.41L194.29 7.41L194.29 7.41Q194.47 7.88 194.47 8.43L194.47 8.43L194.47 8.60L194.47 8.60Q194.47 9.00 194.35 9.34L194.35 9.34L194.35 9.34Q194.22 9.67 194.00 9.94L194.00 9.94L194.00 9.94Q193.77 10.21 193.47 10.39L193.47 10.39L193.47 10.39Q193.17 10.58 192.82 10.68L192.82 10.68L192.82 10.85L192.82 10.85Q193.52 11.05 194.00 11.60L194.00 11.60L194.00 11.60Q194.47 12.15 194.47 12.95L194.47 12.95L194.47 13.12L194.47 13.12Q194.47 13.66 194.29 14.13L194.29 14.13L194.29 14.13Q194.10 14.60 193.73 14.95L193.73 14.95L193.73 14.95Q193.35 15.29 192.82 15.48L192.82 15.48L192.82 15.48Q192.28 15.68 191.58 15.68L191.58 15.68L187.61 15.68ZM189.63 11.31L189.63 14.59L191.49 14.59L191.49 14.59Q192.32 14.59 192.84 14.17L192.84 14.17L192.84 14.17Q193.35 13.76 193.35 13.03L193.35 13.03L193.35 12.95L193.35 12.95Q193.35 12.19 192.86 11.75L192.86 11.75L192.86 11.75Q192.37 11.31 191.53 11.31L191.53 11.31L189.63 11.31ZM189.63 6.97L189.63 10.22L191.53 10.22L191.53 10.22Q192.37 10.22 192.86 9.79L192.86 9.79L192.86 9.79Q193.35 9.35 193.35 8.60L193.35 8.60L193.35 8.51L193.35 8.51Q193.35 7.80 192.84 7.38L192.84 7.38L192.84 7.38Q192.32 6.97 191.49 6.97L191.49 6.97L189.63 6.97ZM203.56 6.97L203.56 5.88L209.78 5.88L209.78 6.97L207.26 6.97L207.26 14.59L209.78 14.59L209.78 15.68L203.56 15.68L203.56 14.59L206.08 14.59L206.08 6.97L203.56 6.97ZM218.97 6.97L218.97 5.88L222.19 5.88L222.19 5.88Q224.01 5.88 224.85 6.75L224.85 6.75L224.85 6.75Q225.69 7.62 225.69 9.52L225.69 9.52L225.69 12.04L225.69 12.04Q225.69 13.94 224.85 14.81L224.85 14.81L224.85 14.81Q224.01 15.68 222.19 15.68L222.19 15.68L218.97 15.68L218.97 14.57L219.81 14.57L219.81 6.97L218.97 6.97ZM220.99 14.59L222.03 14.59L222.03 14.59Q222.67 14.59 223.14 14.46L223.14 14.46L223.14 14.46Q223.61 14.34 223.92 14.04L223.92 14.04L223.92 14.04Q224.22 13.73 224.37 13.23L224.37 13.23L224.37 13.23Q224.52 12.73 224.52 11.96L224.52 11.96L224.52 9.60L224.52 9.60Q224.52 8.83 224.37 8.33L224.37 8.33L224.37 8.33Q224.22 7.83 223.92 7.53L223.92 7.53L223.92 7.53Q223.61 7.22 223.14 7.10L223.14 7.10L223.14 7.10Q222.67 6.97 222.03 6.97L222.03 6.97L220.99 6.97L220.99 14.59ZM240.62 15.68L239.90 13.24L235.70 13.24L234.99 15.68L233.73 15.68L236.70 5.88L238.91 5.88L241.88 15.68L240.62 15.68ZM237.89 6.38L237.72 6.38L236.03 12.15L239.58 12.15L237.89 6.38ZM255.68 9.21L255.68 8.71L255.68 8.71Q255.68 8.23 255.49 7.87L255.49 7.87L255.49 7.87Q255.30 7.50 254.98 7.27L254.98 7.27L254.98 7.27Q254.66 7.03 254.24 6.90L254.24 6.90L254.24 6.90Q253.82 6.78 253.36 6.78L253.36 6.78L253.36 6.78Q252.95 6.78 252.59 6.88L252.59 6.88L252.59 6.88Q252.22 6.99 251.94 7.18L251.94 7.18L251.94 7.18Q251.65 7.38 251.48 7.66L251.48 7.66L251.48 7.66Q251.31 7.95 251.31 8.33L251.31 8.33L251.31 8.41L251.31 8.41Q251.31 8.82 251.48 9.11L251.48 9.11L251.48 9.11Q251.65 9.39 251.98 9.60L251.98 9.60L251.98 9.60Q252.31 9.80 252.80 9.93L252.80 9.93L252.80 9.93Q253.29 10.07 253.95 10.16L253.95 10.16L253.95 10.16Q255.49 10.40 256.21 11.07L256.21 11.07L256.21 11.07Q256.94 11.73 256.94 12.85L256.94 12.85L256.94 13.02L256.94 13.02Q256.94 13.65 256.73 14.17L256.73 14.17L256.73 14.17Q256.51 14.70 256.08 15.08L256.08 15.08L256.08 15.08Q255.65 15.46 255.02 15.67L255.02 15.67L255.02 15.67Q254.39 15.88 253.57 15.88L253.57 15.88L253.57 15.88Q252.63 15.88 251.91 15.60L251.91 15.60L251.91 15.60Q251.19 15.33 250.71 14.85L250.71 14.85L250.71 14.85Q250.22 14.36 249.97 13.71L249.97 13.71L249.97 13.71Q249.72 13.06 249.72 12.29L249.72 12.29L249.72 11.87L250.89 11.87L250.89 12.21L250.89 12.21Q250.89 13.50 251.60 14.14L251.60 14.14L251.60 14.14Q252.31 14.78 253.57 14.78L253.57 14.78L253.57 14.78Q254.66 14.78 255.21 14.30L255.21 14.30L255.21 14.30Q255.77 13.82 255.77 13.02L255.77 13.02L255.77 12.94L255.77 12.94Q255.77 12.17 255.20 11.76L255.20 11.76L255.20 11.76Q254.63 11.35 253.36 11.17L253.36 11.17L253.36 11.17Q252.62 11.07 252.02 10.87L252.02 10.87L252.02 10.87Q251.43 10.67 251.01 10.34L251.01 10.34L251.01 10.34Q250.59 10.01 250.36 9.55L250.36 9.55L250.36 9.55Q250.14 9.09 250.14 8.46L250.14 8.46L250.14 8.29L250.14 8.29Q250.14 7.71 250.38 7.24L250.38 7.24L250.38 7.24Q250.61 6.76 251.04 6.41L251.04 6.41L251.04 6.41Q251.47 6.06 252.06 5.87L252.06 5.87L252.06 5.87Q252.66 5.68 253.37 5.68L253.37 5.68L253.37 5.68Q254.20 5.68 254.85 5.92L254.85 5.92L254.85 5.92Q255.50 6.16 255.95 6.56L255.95 6.56L255.95 6.56Q256.40 6.96 256.63 7.50L256.63 7.50L256.63 7.50Q256.86 8.04 256.86 8.62L256.86 8.62L256.86 9.21L255.68 9.21Z"></path></g></svg>